<mxfile host="app.diagrams.net" agent="Mozilla/5.0 (Windows NT 10.0; Win64; x64) AppleWebKit/537.36 (KHTML, like Gecko) Chrome/136.0.0.0 Safari/537.36 Edg/136.0.0.0" version="27.0.3">
  <diagram id="UgMRSADVrXrO7Ovkomrn" name="第 1 页">
    <mxGraphModel dx="3710" dy="2002" grid="1" gridSize="10" guides="1" tooltips="1" connect="1" arrows="1" fold="1" page="1" pageScale="1" pageWidth="827" pageHeight="1169" math="0" shadow="0">
      <root>
        <mxCell id="0" />
        <mxCell id="1" parent="0" />
        <mxCell id="nSpDnXM6qQDr-sMT74V1-59" value="" style="rounded=1;whiteSpace=wrap;html=1;strokeColor=default;align=center;verticalAlign=middle;fontFamily=Times New Roman;fontSize=20;fontColor=default;fillColor=light-dark(#fafafa, #ededed);" vertex="1" parent="1">
          <mxGeometry x="160" y="450" width="220" height="1130" as="geometry" />
        </mxCell>
        <mxCell id="nSpDnXM6qQDr-sMT74V1-57" value="" style="rounded=1;whiteSpace=wrap;html=1;strokeColor=default;align=center;verticalAlign=middle;fontFamily=Times New Roman;fontSize=20;fontColor=default;fillColor=light-dark(#fafafa, #ededed);" vertex="1" parent="1">
          <mxGeometry x="490" y="580" width="470" height="749" as="geometry" />
        </mxCell>
        <mxCell id="nSpDnXM6qQDr-sMT74V1-73" value="" style="edgeStyle=orthogonalEdgeStyle;rounded=0;orthogonalLoop=1;jettySize=auto;html=1;fontFamily=Times New Roman;fontSize=20;fontColor=default;strokeWidth=2;" edge="1" parent="1" source="nSpDnXM6qQDr-sMT74V1-2" target="nSpDnXM6qQDr-sMT74V1-3">
          <mxGeometry relative="1" as="geometry" />
        </mxCell>
        <mxCell id="nSpDnXM6qQDr-sMT74V1-2" value="CBS" style="rounded=0;whiteSpace=wrap;html=1;fillColor=light-dark(#5283c6, #ededed);fontSize=20;fontFamily=Times New Roman;strokeColor=none;strokeWidth=2;" vertex="1" parent="1">
          <mxGeometry x="190" y="816" width="160" height="60" as="geometry" />
        </mxCell>
        <mxCell id="nSpDnXM6qQDr-sMT74V1-74" value="" style="edgeStyle=orthogonalEdgeStyle;rounded=0;orthogonalLoop=1;jettySize=auto;html=1;fontFamily=Times New Roman;fontSize=20;fontColor=default;strokeWidth=2;" edge="1" parent="1" source="nSpDnXM6qQDr-sMT74V1-3" target="nSpDnXM6qQDr-sMT74V1-6">
          <mxGeometry relative="1" as="geometry" />
        </mxCell>
        <mxCell id="nSpDnXM6qQDr-sMT74V1-3" value="C3K2" style="rounded=0;whiteSpace=wrap;html=1;fillColor=light-dark(#5fa755, #ededed);strokeColor=none;align=center;verticalAlign=middle;fontFamily=Times New Roman;fontSize=20;fontColor=default;strokeWidth=2;" vertex="1" parent="1">
          <mxGeometry x="190" y="719" width="160" height="60" as="geometry" />
        </mxCell>
        <mxCell id="nSpDnXM6qQDr-sMT74V1-63" style="edgeStyle=orthogonalEdgeStyle;rounded=0;orthogonalLoop=1;jettySize=auto;html=1;fontFamily=Times New Roman;fontSize=20;fontColor=default;entryX=0;entryY=0.5;entryDx=0;entryDy=0;strokeWidth=2;" edge="1" parent="1" source="nSpDnXM6qQDr-sMT74V1-5" target="nSpDnXM6qQDr-sMT74V1-49">
          <mxGeometry relative="1" as="geometry" />
        </mxCell>
        <mxCell id="nSpDnXM6qQDr-sMT74V1-64" style="edgeStyle=orthogonalEdgeStyle;rounded=0;orthogonalLoop=1;jettySize=auto;html=1;entryX=0;entryY=0.5;entryDx=0;entryDy=0;fontFamily=Times New Roman;fontSize=20;fontColor=default;strokeWidth=2;" edge="1" parent="1" source="nSpDnXM6qQDr-sMT74V1-5" target="nSpDnXM6qQDr-sMT74V1-12">
          <mxGeometry relative="1" as="geometry" />
        </mxCell>
        <mxCell id="nSpDnXM6qQDr-sMT74V1-5" value="&lt;font&gt;C2PSA&lt;/font&gt;" style="rounded=0;whiteSpace=wrap;html=1;fillColor=light-dark(#d06016, #ededed);fontSize=20;fontFamily=Times New Roman;strokeColor=none;strokeWidth=2;" vertex="1" parent="1">
          <mxGeometry x="190" y="525" width="160" height="60" as="geometry" />
        </mxCell>
        <mxCell id="nSpDnXM6qQDr-sMT74V1-75" value="" style="edgeStyle=orthogonalEdgeStyle;rounded=0;orthogonalLoop=1;jettySize=auto;html=1;fontFamily=Times New Roman;fontSize=20;fontColor=default;strokeWidth=2;" edge="1" parent="1" source="nSpDnXM6qQDr-sMT74V1-6" target="nSpDnXM6qQDr-sMT74V1-5">
          <mxGeometry relative="1" as="geometry" />
        </mxCell>
        <mxCell id="nSpDnXM6qQDr-sMT74V1-6" value="SPPF" style="rounded=0;whiteSpace=wrap;html=1;fillColor=light-dark(#ffc001, #ededed);fontSize=20;fontFamily=Times New Roman;strokeColor=none;strokeWidth=2;" vertex="1" parent="1">
          <mxGeometry x="190" y="622" width="160" height="60" as="geometry" />
        </mxCell>
        <mxCell id="nSpDnXM6qQDr-sMT74V1-76" value="" style="edgeStyle=orthogonalEdgeStyle;rounded=0;orthogonalLoop=1;jettySize=auto;html=1;fontFamily=Times New Roman;fontSize=20;fontColor=default;strokeWidth=2;" edge="1" parent="1" source="nSpDnXM6qQDr-sMT74V1-12" target="nSpDnXM6qQDr-sMT74V1-14">
          <mxGeometry relative="1" as="geometry" />
        </mxCell>
        <mxCell id="nSpDnXM6qQDr-sMT74V1-12" value="Upsample" style="rounded=0;whiteSpace=wrap;html=1;fillColor=light-dark(#ed7d31, #ededed);fontSize=20;fontFamily=Times New Roman;strokeColor=none;strokeWidth=2;" vertex="1" parent="1">
          <mxGeometry x="520" y="803" width="160" height="60" as="geometry" />
        </mxCell>
        <mxCell id="nSpDnXM6qQDr-sMT74V1-77" value="" style="edgeStyle=orthogonalEdgeStyle;rounded=0;orthogonalLoop=1;jettySize=auto;html=1;fontFamily=Times New Roman;fontSize=20;fontColor=default;strokeWidth=2;" edge="1" parent="1" source="nSpDnXM6qQDr-sMT74V1-14" target="nSpDnXM6qQDr-sMT74V1-44">
          <mxGeometry relative="1" as="geometry" />
        </mxCell>
        <mxCell id="nSpDnXM6qQDr-sMT74V1-14" value="Concat" style="rounded=0;whiteSpace=wrap;html=1;strokeColor=none;align=center;verticalAlign=middle;fontFamily=Times New Roman;fontSize=20;fontColor=default;fillColor=light-dark(#ff6694, #ededed);strokeWidth=2;" vertex="1" parent="1">
          <mxGeometry x="520" y="914" width="160" height="60" as="geometry" />
        </mxCell>
        <mxCell id="nSpDnXM6qQDr-sMT74V1-25" value="Head" style="rounded=0;whiteSpace=wrap;html=1;fillColor=light-dark(#bf9000, #ededed);fontSize=20;fontFamily=Times New Roman;strokeColor=none;strokeWidth=2;" vertex="1" parent="1">
          <mxGeometry x="1051" y="630" width="160" height="60" as="geometry" />
        </mxCell>
        <mxCell id="nSpDnXM6qQDr-sMT74V1-84" value="" style="edgeStyle=orthogonalEdgeStyle;rounded=0;orthogonalLoop=1;jettySize=auto;html=1;fontFamily=Times New Roman;fontSize=20;fontColor=default;strokeWidth=2;" edge="1" parent="1" source="nSpDnXM6qQDr-sMT74V1-33" target="nSpDnXM6qQDr-sMT74V1-41">
          <mxGeometry relative="1" as="geometry" />
        </mxCell>
        <mxCell id="nSpDnXM6qQDr-sMT74V1-33" value="C3K2" style="rounded=0;whiteSpace=wrap;html=1;fillColor=light-dark(#5fa755, #ededed);strokeColor=none;align=center;verticalAlign=middle;fontFamily=Times New Roman;fontSize=20;fontColor=default;strokeWidth=2;" vertex="1" parent="1">
          <mxGeometry x="770" y="939" width="160" height="60" as="geometry" />
        </mxCell>
        <mxCell id="nSpDnXM6qQDr-sMT74V1-69" style="edgeStyle=orthogonalEdgeStyle;rounded=0;orthogonalLoop=1;jettySize=auto;html=1;fontFamily=Times New Roman;fontSize=20;fontColor=default;strokeWidth=2;" edge="1" parent="1" source="nSpDnXM6qQDr-sMT74V1-34" target="nSpDnXM6qQDr-sMT74V1-36">
          <mxGeometry relative="1" as="geometry" />
        </mxCell>
        <mxCell id="nSpDnXM6qQDr-sMT74V1-89" style="edgeStyle=orthogonalEdgeStyle;rounded=0;orthogonalLoop=1;jettySize=auto;html=1;entryX=0;entryY=0.5;entryDx=0;entryDy=0;fontFamily=Times New Roman;fontSize=20;fontColor=default;strokeWidth=2;" edge="1" parent="1" source="nSpDnXM6qQDr-sMT74V1-34" target="nSpDnXM6qQDr-sMT74V1-48">
          <mxGeometry relative="1" as="geometry" />
        </mxCell>
        <mxCell id="nSpDnXM6qQDr-sMT74V1-34" value="C3K2" style="rounded=0;whiteSpace=wrap;html=1;fillColor=light-dark(#5fa755, #ededed);strokeColor=none;align=center;verticalAlign=middle;fontFamily=Times New Roman;fontSize=20;fontColor=default;strokeWidth=2;" vertex="1" parent="1">
          <mxGeometry x="190" y="1107" width="160" height="60" as="geometry" />
        </mxCell>
        <mxCell id="nSpDnXM6qQDr-sMT74V1-67" style="edgeStyle=orthogonalEdgeStyle;rounded=0;orthogonalLoop=1;jettySize=auto;html=1;fontFamily=Times New Roman;fontSize=20;fontColor=default;strokeWidth=2;" edge="1" parent="1" source="nSpDnXM6qQDr-sMT74V1-35" target="nSpDnXM6qQDr-sMT74V1-38">
          <mxGeometry relative="1" as="geometry" />
        </mxCell>
        <mxCell id="nSpDnXM6qQDr-sMT74V1-35" value="C3K2" style="rounded=0;whiteSpace=wrap;html=1;fillColor=light-dark(#5fa755, #ededed);strokeColor=none;align=center;verticalAlign=middle;fontFamily=Times New Roman;fontSize=20;fontColor=default;strokeWidth=2;" vertex="1" parent="1">
          <mxGeometry x="190" y="1301" width="160" height="60" as="geometry" />
        </mxCell>
        <mxCell id="nSpDnXM6qQDr-sMT74V1-70" value="" style="edgeStyle=orthogonalEdgeStyle;rounded=0;orthogonalLoop=1;jettySize=auto;html=1;fontFamily=Times New Roman;fontSize=20;fontColor=default;strokeWidth=2;" edge="1" parent="1" source="nSpDnXM6qQDr-sMT74V1-36" target="nSpDnXM6qQDr-sMT74V1-46">
          <mxGeometry relative="1" as="geometry" />
        </mxCell>
        <mxCell id="nSpDnXM6qQDr-sMT74V1-36" value="CBS" style="rounded=0;whiteSpace=wrap;html=1;fillColor=light-dark(#5283c6, #ededed);fontSize=20;fontFamily=Times New Roman;strokeColor=none;strokeWidth=2;" vertex="1" parent="1">
          <mxGeometry x="190" y="1010" width="160" height="60" as="geometry" />
        </mxCell>
        <mxCell id="nSpDnXM6qQDr-sMT74V1-68" style="edgeStyle=orthogonalEdgeStyle;rounded=0;orthogonalLoop=1;jettySize=auto;html=1;entryX=0.5;entryY=1;entryDx=0;entryDy=0;fontFamily=Times New Roman;fontSize=20;fontColor=default;strokeWidth=2;" edge="1" parent="1" source="nSpDnXM6qQDr-sMT74V1-38" target="nSpDnXM6qQDr-sMT74V1-34">
          <mxGeometry relative="1" as="geometry" />
        </mxCell>
        <mxCell id="nSpDnXM6qQDr-sMT74V1-38" value="CBS" style="rounded=0;whiteSpace=wrap;html=1;fillColor=light-dark(#5283c6, #ededed);fontSize=20;fontFamily=Times New Roman;strokeColor=none;strokeWidth=2;" vertex="1" parent="1">
          <mxGeometry x="190" y="1204" width="160" height="60" as="geometry" />
        </mxCell>
        <mxCell id="nSpDnXM6qQDr-sMT74V1-66" style="edgeStyle=orthogonalEdgeStyle;rounded=0;orthogonalLoop=1;jettySize=auto;html=1;entryX=0.5;entryY=1;entryDx=0;entryDy=0;fontFamily=Times New Roman;fontSize=20;fontColor=default;strokeWidth=2;" edge="1" parent="1" source="nSpDnXM6qQDr-sMT74V1-39" target="nSpDnXM6qQDr-sMT74V1-35">
          <mxGeometry relative="1" as="geometry" />
        </mxCell>
        <mxCell id="nSpDnXM6qQDr-sMT74V1-39" value="CBS" style="rounded=0;whiteSpace=wrap;html=1;fillColor=light-dark(#5283c6, #ededed);fontSize=20;fontFamily=Times New Roman;strokeColor=none;strokeWidth=2;" vertex="1" parent="1">
          <mxGeometry x="190" y="1398" width="160" height="60" as="geometry" />
        </mxCell>
        <mxCell id="nSpDnXM6qQDr-sMT74V1-65" style="edgeStyle=orthogonalEdgeStyle;rounded=0;orthogonalLoop=1;jettySize=auto;html=1;exitX=0.5;exitY=0;exitDx=0;exitDy=0;entryX=0.5;entryY=1;entryDx=0;entryDy=0;fontFamily=Times New Roman;fontSize=20;fontColor=default;strokeWidth=2;" edge="1" parent="1" source="nSpDnXM6qQDr-sMT74V1-40" target="nSpDnXM6qQDr-sMT74V1-39">
          <mxGeometry relative="1" as="geometry" />
        </mxCell>
        <mxCell id="nSpDnXM6qQDr-sMT74V1-40" value="CBS" style="rounded=0;whiteSpace=wrap;html=1;fillColor=light-dark(#5283c6, #ededed);fontSize=20;fontFamily=Times New Roman;strokeColor=none;strokeWidth=2;" vertex="1" parent="1">
          <mxGeometry x="190" y="1495" width="160" height="60" as="geometry" />
        </mxCell>
        <mxCell id="nSpDnXM6qQDr-sMT74V1-85" value="" style="edgeStyle=orthogonalEdgeStyle;rounded=0;orthogonalLoop=1;jettySize=auto;html=1;fontFamily=Times New Roman;fontSize=20;fontColor=default;strokeWidth=2;" edge="1" parent="1" source="nSpDnXM6qQDr-sMT74V1-41" target="nSpDnXM6qQDr-sMT74V1-49">
          <mxGeometry relative="1" as="geometry" />
        </mxCell>
        <mxCell id="nSpDnXM6qQDr-sMT74V1-41" value="CBS" style="rounded=0;whiteSpace=wrap;html=1;fillColor=light-dark(#5283c6, #ededed);fontSize=20;fontFamily=Times New Roman;strokeColor=none;strokeWidth=2;" vertex="1" parent="1">
          <mxGeometry x="770" y="836" width="160" height="60" as="geometry" />
        </mxCell>
        <mxCell id="nSpDnXM6qQDr-sMT74V1-82" value="" style="edgeStyle=orthogonalEdgeStyle;rounded=0;orthogonalLoop=1;jettySize=auto;html=1;fontFamily=Times New Roman;fontSize=20;fontColor=default;strokeWidth=2;" edge="1" parent="1" source="nSpDnXM6qQDr-sMT74V1-42" target="nSpDnXM6qQDr-sMT74V1-50">
          <mxGeometry relative="1" as="geometry" />
        </mxCell>
        <mxCell id="nSpDnXM6qQDr-sMT74V1-42" value="CBS" style="rounded=0;whiteSpace=wrap;html=1;fillColor=light-dark(#5283c6, #ededed);fontSize=20;fontFamily=Times New Roman;strokeColor=none;strokeWidth=2;" vertex="1" parent="1">
          <mxGeometry x="770" y="1145" width="160" height="60" as="geometry" />
        </mxCell>
        <mxCell id="nSpDnXM6qQDr-sMT74V1-79" value="" style="edgeStyle=orthogonalEdgeStyle;rounded=0;orthogonalLoop=1;jettySize=auto;html=1;fontFamily=Times New Roman;fontSize=20;fontColor=default;strokeWidth=2;" edge="1" parent="1" source="nSpDnXM6qQDr-sMT74V1-43" target="nSpDnXM6qQDr-sMT74V1-48">
          <mxGeometry relative="1" as="geometry" />
        </mxCell>
        <mxCell id="nSpDnXM6qQDr-sMT74V1-43" value="Upsample" style="rounded=0;whiteSpace=wrap;html=1;fillColor=light-dark(#ed7d31, #ededed);fontSize=20;fontFamily=Times New Roman;strokeColor=none;strokeWidth=2;" vertex="1" parent="1">
          <mxGeometry x="520" y="1137" width="160" height="60" as="geometry" />
        </mxCell>
        <mxCell id="nSpDnXM6qQDr-sMT74V1-78" value="" style="edgeStyle=orthogonalEdgeStyle;rounded=0;orthogonalLoop=1;jettySize=auto;html=1;fontFamily=Times New Roman;fontSize=20;fontColor=default;strokeWidth=2;" edge="1" parent="1" source="nSpDnXM6qQDr-sMT74V1-44" target="nSpDnXM6qQDr-sMT74V1-43">
          <mxGeometry relative="1" as="geometry" />
        </mxCell>
        <mxCell id="nSpDnXM6qQDr-sMT74V1-44" value="C3K2" style="rounded=0;whiteSpace=wrap;html=1;fillColor=light-dark(#5fa755, #ededed);strokeColor=none;align=center;verticalAlign=middle;fontFamily=Times New Roman;fontSize=20;fontColor=default;strokeWidth=2;" vertex="1" parent="1">
          <mxGeometry x="520" y="1026" width="160" height="60" as="geometry" />
        </mxCell>
        <mxCell id="nSpDnXM6qQDr-sMT74V1-45" value="C3K2" style="rounded=0;whiteSpace=wrap;html=1;fillColor=light-dark(#5fa755, #ededed);strokeColor=none;align=center;verticalAlign=middle;fontFamily=Times New Roman;fontSize=20;fontColor=default;strokeWidth=2;" vertex="1" parent="1">
          <mxGeometry x="770" y="630" width="160" height="60" as="geometry" />
        </mxCell>
        <mxCell id="nSpDnXM6qQDr-sMT74V1-62" value="" style="edgeStyle=orthogonalEdgeStyle;rounded=0;orthogonalLoop=1;jettySize=auto;html=1;fontFamily=Times New Roman;fontSize=20;fontColor=default;entryX=0;entryY=0.5;entryDx=0;entryDy=0;strokeWidth=2;" edge="1" parent="1" source="nSpDnXM6qQDr-sMT74V1-46" target="nSpDnXM6qQDr-sMT74V1-14">
          <mxGeometry relative="1" as="geometry" />
        </mxCell>
        <mxCell id="nSpDnXM6qQDr-sMT74V1-72" value="" style="edgeStyle=orthogonalEdgeStyle;rounded=0;orthogonalLoop=1;jettySize=auto;html=1;fontFamily=Times New Roman;fontSize=20;fontColor=default;strokeWidth=2;" edge="1" parent="1" source="nSpDnXM6qQDr-sMT74V1-46" target="nSpDnXM6qQDr-sMT74V1-2">
          <mxGeometry relative="1" as="geometry" />
        </mxCell>
        <mxCell id="nSpDnXM6qQDr-sMT74V1-46" value="C3K2" style="rounded=0;whiteSpace=wrap;html=1;fillColor=light-dark(#5fa755, #ededed);strokeColor=none;align=center;verticalAlign=middle;fontFamily=Times New Roman;fontSize=20;fontColor=default;strokeWidth=2;" vertex="1" parent="1">
          <mxGeometry x="190" y="913" width="160" height="60" as="geometry" />
        </mxCell>
        <mxCell id="nSpDnXM6qQDr-sMT74V1-81" value="" style="edgeStyle=orthogonalEdgeStyle;rounded=0;orthogonalLoop=1;jettySize=auto;html=1;fontFamily=Times New Roman;fontSize=20;fontColor=default;strokeWidth=2;" edge="1" parent="1" source="nSpDnXM6qQDr-sMT74V1-47" target="nSpDnXM6qQDr-sMT74V1-42">
          <mxGeometry relative="1" as="geometry" />
        </mxCell>
        <mxCell id="nSpDnXM6qQDr-sMT74V1-47" value="C3K2" style="rounded=0;whiteSpace=wrap;html=1;fillColor=light-dark(#5fa755, #ededed);strokeColor=none;align=center;verticalAlign=middle;fontFamily=Times New Roman;fontSize=20;fontColor=default;strokeWidth=2;" vertex="1" parent="1">
          <mxGeometry x="770" y="1248" width="160" height="60" as="geometry" />
        </mxCell>
        <mxCell id="nSpDnXM6qQDr-sMT74V1-88" value="" style="edgeStyle=orthogonalEdgeStyle;rounded=0;orthogonalLoop=1;jettySize=auto;html=1;fontFamily=Times New Roman;fontSize=20;fontColor=default;strokeWidth=2;" edge="1" parent="1" source="nSpDnXM6qQDr-sMT74V1-48" target="nSpDnXM6qQDr-sMT74V1-47">
          <mxGeometry relative="1" as="geometry" />
        </mxCell>
        <mxCell id="nSpDnXM6qQDr-sMT74V1-48" value="Concat" style="rounded=0;whiteSpace=wrap;html=1;strokeColor=none;align=center;verticalAlign=middle;fontFamily=Times New Roman;fontSize=20;fontColor=default;fillColor=light-dark(#ff6694, #ededed);strokeWidth=2;" vertex="1" parent="1">
          <mxGeometry x="520" y="1248" width="160" height="60" as="geometry" />
        </mxCell>
        <mxCell id="nSpDnXM6qQDr-sMT74V1-87" value="" style="edgeStyle=orthogonalEdgeStyle;rounded=0;orthogonalLoop=1;jettySize=auto;html=1;fontFamily=Times New Roman;fontSize=20;fontColor=default;strokeWidth=2;" edge="1" parent="1" source="nSpDnXM6qQDr-sMT74V1-49" target="nSpDnXM6qQDr-sMT74V1-45">
          <mxGeometry relative="1" as="geometry" />
        </mxCell>
        <mxCell id="nSpDnXM6qQDr-sMT74V1-49" value="Concat" style="rounded=0;whiteSpace=wrap;html=1;strokeColor=none;align=center;verticalAlign=middle;fontFamily=Times New Roman;fontSize=20;fontColor=default;fillColor=light-dark(#ff6694, #ededed);strokeWidth=2;" vertex="1" parent="1">
          <mxGeometry x="770" y="733" width="160" height="60" as="geometry" />
        </mxCell>
        <mxCell id="nSpDnXM6qQDr-sMT74V1-83" value="" style="edgeStyle=orthogonalEdgeStyle;rounded=0;orthogonalLoop=1;jettySize=auto;html=1;fontFamily=Times New Roman;fontSize=20;fontColor=default;strokeWidth=2;" edge="1" parent="1" source="nSpDnXM6qQDr-sMT74V1-50" target="nSpDnXM6qQDr-sMT74V1-33">
          <mxGeometry relative="1" as="geometry" />
        </mxCell>
        <mxCell id="nSpDnXM6qQDr-sMT74V1-50" value="Concat" style="rounded=0;whiteSpace=wrap;html=1;strokeColor=none;align=center;verticalAlign=middle;fontFamily=Times New Roman;fontSize=20;fontColor=default;fillColor=light-dark(#ff6694, #ededed);strokeWidth=2;" vertex="1" parent="1">
          <mxGeometry x="770" y="1042" width="160" height="60" as="geometry" />
        </mxCell>
        <mxCell id="nSpDnXM6qQDr-sMT74V1-51" value="Head" style="rounded=0;whiteSpace=wrap;html=1;fillColor=light-dark(#bf9000, #ededed);fontSize=20;fontFamily=Times New Roman;strokeColor=none;strokeWidth=2;" vertex="1" parent="1">
          <mxGeometry x="1051" y="939" width="160" height="60" as="geometry" />
        </mxCell>
        <mxCell id="nSpDnXM6qQDr-sMT74V1-52" value="Head" style="rounded=0;whiteSpace=wrap;html=1;fillColor=light-dark(#bf9000, #ededed);fontSize=20;fontFamily=Times New Roman;strokeColor=none;strokeWidth=2;" vertex="1" parent="1">
          <mxGeometry x="1051" y="1248" width="160" height="60" as="geometry" />
        </mxCell>
        <mxCell id="nSpDnXM6qQDr-sMT74V1-53" value="" style="endArrow=classic;html=1;rounded=0;fontFamily=Times New Roman;fontSize=20;fontColor=default;exitX=1;exitY=0.5;exitDx=0;exitDy=0;entryX=0;entryY=0.5;entryDx=0;entryDy=0;strokeWidth=2;" edge="1" parent="1" source="nSpDnXM6qQDr-sMT74V1-45" target="nSpDnXM6qQDr-sMT74V1-25">
          <mxGeometry width="50" height="50" relative="1" as="geometry">
            <mxPoint x="980" y="1030" as="sourcePoint" />
            <mxPoint x="1030" y="980" as="targetPoint" />
          </mxGeometry>
        </mxCell>
        <mxCell id="nSpDnXM6qQDr-sMT74V1-54" value="" style="endArrow=classic;html=1;rounded=0;fontFamily=Times New Roman;fontSize=20;fontColor=default;strokeWidth=2;" edge="1" parent="1" source="nSpDnXM6qQDr-sMT74V1-33" target="nSpDnXM6qQDr-sMT74V1-51">
          <mxGeometry width="50" height="50" relative="1" as="geometry">
            <mxPoint x="930" y="960" as="sourcePoint" />
            <mxPoint x="1070" y="960" as="targetPoint" />
          </mxGeometry>
        </mxCell>
        <mxCell id="nSpDnXM6qQDr-sMT74V1-55" value="" style="endArrow=classic;html=1;rounded=0;fontFamily=Times New Roman;fontSize=20;fontColor=default;strokeWidth=2;" edge="1" parent="1" source="nSpDnXM6qQDr-sMT74V1-47" target="nSpDnXM6qQDr-sMT74V1-52">
          <mxGeometry width="50" height="50" relative="1" as="geometry">
            <mxPoint x="930" y="1239.29" as="sourcePoint" />
            <mxPoint x="1070" y="1239.29" as="targetPoint" />
          </mxGeometry>
        </mxCell>
        <mxCell id="nSpDnXM6qQDr-sMT74V1-91" value="" style="edgeStyle=orthogonalEdgeStyle;rounded=0;orthogonalLoop=1;jettySize=auto;html=1;fontFamily=Times New Roman;fontSize=20;fontColor=default;" edge="1" parent="1" source="nSpDnXM6qQDr-sMT74V1-90" target="nSpDnXM6qQDr-sMT74V1-40">
          <mxGeometry relative="1" as="geometry" />
        </mxCell>
        <mxCell id="nSpDnXM6qQDr-sMT74V1-92" value="" style="edgeStyle=orthogonalEdgeStyle;rounded=0;orthogonalLoop=1;jettySize=auto;html=1;fontFamily=Times New Roman;fontSize=20;fontColor=default;" edge="1" parent="1" source="nSpDnXM6qQDr-sMT74V1-90" target="nSpDnXM6qQDr-sMT74V1-40">
          <mxGeometry relative="1" as="geometry" />
        </mxCell>
        <mxCell id="nSpDnXM6qQDr-sMT74V1-90" value="" style="whiteSpace=wrap;html=1;aspect=fixed;rounded=0;strokeColor=default;align=center;verticalAlign=middle;fontFamily=Times New Roman;fontSize=20;fontColor=default;fillColor=light-dark(#5283c6, #ededed);strokeWidth=2;" vertex="1" parent="1">
          <mxGeometry x="230" y="1615" width="80" height="80" as="geometry" />
        </mxCell>
        <mxCell id="nSpDnXM6qQDr-sMT74V1-93" value="" style="whiteSpace=wrap;html=1;aspect=fixed;rounded=0;strokeColor=default;align=center;verticalAlign=middle;fontFamily=Times New Roman;fontSize=20;fontColor=default;fillColor=light-dark(#5fa755, #ededed);strokeWidth=2;" vertex="1" parent="1">
          <mxGeometry x="240" y="1625" width="80" height="80" as="geometry" />
        </mxCell>
        <mxCell id="nSpDnXM6qQDr-sMT74V1-94" value="" style="whiteSpace=wrap;html=1;aspect=fixed;rounded=0;strokeColor=default;align=center;verticalAlign=middle;fontFamily=Times New Roman;fontSize=20;fontColor=default;fillColor=light-dark(#fe0000, #ededed);strokeWidth=2;" vertex="1" parent="1">
          <mxGeometry x="250" y="1640" width="80" height="80" as="geometry" />
        </mxCell>
        <mxCell id="nSpDnXM6qQDr-sMT74V1-95" value="Backbone" style="text;html=1;align=center;verticalAlign=middle;whiteSpace=wrap;rounded=0;fontFamily=Times New Roman;fontSize=20;fontColor=default;" vertex="1" parent="1">
          <mxGeometry x="240" y="480" width="60" height="30" as="geometry" />
        </mxCell>
        <mxCell id="nSpDnXM6qQDr-sMT74V1-97" value="Neck" style="text;html=1;align=center;verticalAlign=middle;whiteSpace=wrap;rounded=0;fontFamily=Times New Roman;fontSize=20;fontColor=default;" vertex="1" parent="1">
          <mxGeometry x="695" y="592" width="60" height="30" as="geometry" />
        </mxCell>
      </root>
    </mxGraphModel>
  </diagram>
</mxfile>
